<svg width="17" height="14" viewBox="0 0 17 14" fill="none" xmlns="http://www.w3.org/2000/svg">
<path fill-rule="evenodd" clip-rule="evenodd" d="M4.53172 1.92363C4.53172 0.861238 5.38772 0 6.44365 0H7.78905C8.82957 0 9.67592 0.836213 9.70047 1.87711C9.89371 1.72816 10.1186 1.61409 10.3683 1.54677L12.2835 1.03046C13.3034 0.755489 14.3517 1.36448 14.6251 2.39067L16.9344 11.0617C17.2077 12.0879 16.6024 13.1427 15.5824 13.4177L13.6672 13.934C12.6472 14.2089 11.5989 13.6 11.3256 12.5738L9.70098 6.47373V11.9692C9.70098 13.0316 8.84503 13.8929 7.78905 13.8929H6.44365C5.95403 13.8929 5.50741 13.7077 5.16916 13.4031C4.83092 13.7077 4.38429 13.8929 3.89468 13.8929H1.91193C0.856003 13.8929 0 13.0316 0 11.9692V3.84725C0 2.78486 0.856003 1.92363 1.91193 1.92363H3.89468C4.11804 1.92363 4.33246 1.96216 4.53172 2.03298V1.92363ZM4.53172 11.9692V3.82817C4.52168 3.48287 4.24031 3.20604 3.89468 3.20604H1.91193C1.55996 3.20604 1.27462 3.49313 1.27462 3.84725V11.9692C1.27462 12.3234 1.55996 12.6104 1.91193 12.6104H3.89468C4.24116 12.6104 4.52307 12.3322 4.53179 11.9857L4.53172 11.9692ZM6.44365 12.6104C6.09717 12.6104 5.81526 12.3322 5.80654 11.9857L5.80661 11.9692V3.84725C5.80661 3.83621 5.80652 3.82519 5.80634 3.81419V1.92363C5.80634 1.5695 6.09167 1.28242 6.44365 1.28242H7.78905C8.1411 1.28242 8.42636 1.5695 8.42636 1.92363V11.9692C8.42636 12.3234 8.1411 12.6104 7.78905 12.6104H6.44365ZM10.2475 3.57081C10.1564 3.22874 10.3582 2.87715 10.6982 2.78549L12.6133 2.26918C12.9533 2.17752 13.3028 2.38052 13.3939 2.72258L15.7032 11.3936C15.7943 11.7357 15.5925 12.0873 15.2525 12.179L13.3373 12.6953C12.9973 12.7869 12.6479 12.5839 12.5568 12.2419L10.2475 3.57081Z" fill="#323544"/>
</svg>
