<svg width="7" height="10" viewBox="0 0 7 10" fill="none" xmlns="http://www.w3.org/2000/svg">
<path d="M2.2527e-05 0.42859C2.2527e-05 0.191883 0.185615 0 0.41455 0H6.58547C6.8144 0 7 0.191883 7 0.42859C7 0.665292 6.8144 0.857181 6.58547 0.857181H4.68926C5.16171 1.32521 5.48554 1.95231 5.58027 2.65525H6.58547C6.8144 2.65525 7 2.84714 7 3.08384C7 3.32054 6.8144 3.51243 6.58547 3.51243H5.5806C5.37931 5.01389 4.13285 6.16989 2.6253 6.16989H1.62614L5.4484 9.23265C5.62935 9.37763 5.66235 9.64684 5.52213 9.83393C5.38191 10.021 5.12153 10.0551 4.94057 9.91017L0.160627 6.08005C0.0205498 5.96782 -0.0350246 5.77593 0.0223459 5.60255C0.079711 5.42922 0.237331 5.3127 0.41455 5.3127H2.6253C3.67383 5.3127 4.54749 4.53827 4.74033 3.51243H0.414528C0.185593 3.51243 3.88904e-07 3.32054 3.88904e-07 3.08384C3.88904e-07 2.84714 0.185593 2.65525 0.414528 2.65525H4.73989C4.54622 1.6305 3.67311 0.857181 2.6253 0.857181H0.41455C0.185615 0.857181 2.2527e-05 0.665292 2.2527e-05 0.42859Z" fill="#323544"/>
</svg>
