<svg width="15" height="15" viewBox="0 0 15 15" fill="none" xmlns="http://www.w3.org/2000/svg">
<path fill-rule="evenodd" clip-rule="evenodd" d="M7.88571 1.41458C7.65711 1.24311 7.34289 1.24311 7.11429 1.41458L1.54286 5.59401C1.38099 5.71545 1.28571 5.90598 1.28571 6.10839V13.071C1.28571 13.4262 1.57353 13.714 1.92857 13.714H4.92857V11.785C4.92857 10.3646 6.0798 9.21309 7.5 9.21309C8.9202 9.21309 10.0714 10.3646 10.0714 11.785V13.714H13.0714C13.4265 13.714 13.7143 13.4262 13.7143 13.071V6.10839C13.7143 5.90598 13.6191 5.71545 13.4571 5.59401L7.88571 1.41458ZM6.34286 0.385794C7.02857 -0.128598 7.97143 -0.128598 8.65714 0.385794L14.2286 4.56523C14.7142 4.92952 15 5.50124 15 6.10839V13.071C15 14.1364 14.1365 15 13.0714 15H9.42857C9.07354 15 8.78571 14.7122 8.78571 14.357V11.785C8.78571 11.0748 8.21006 10.4991 7.5 10.4991C6.78994 10.4991 6.21429 11.0748 6.21429 11.785V14.357C6.21429 14.7122 5.92646 15 5.57143 15H1.92857C0.863451 15 0 14.1364 0 13.071V6.10839C0 5.50124 0.285806 4.92952 0.771429 4.56523L6.34286 0.385794Z" fill="#323544"/>
</svg>
