<svg width="15" height="15" viewBox="0 0 15 15" fill="none" xmlns="http://www.w3.org/2000/svg">
<path fill-rule="evenodd" clip-rule="evenodd" d="M13.5977 0.586327C12.8159 -0.195442 11.5484 -0.195442 10.7666 0.586327L9.19095 2.162C9.18596 2.16665 9.18107 2.1714 9.17627 2.17624C9.17146 2.18107 9.16666 2.18596 9.16203 2.19091L1.61411 9.73885C1.38177 9.97115 1.21019 10.2571 1.11452 10.5714L0.0289302 14.1384C-0.042825 14.3741 0.0211986 14.6303 0.195457 14.8045C0.369716 14.9788 0.625828 15.0428 0.861583 14.971L4.42853 13.8855C4.74288 13.7898 5.02885 13.6182 5.26119 13.3859L14.4137 4.2334C15.1954 3.45163 15.1954 2.18414 14.4137 1.40237L13.5977 0.586327ZM9.64835 3.59197L2.55779 10.6825C2.48035 10.76 2.42315 10.8553 2.39126 10.9601L1.66996 13.3301L4.03996 12.6087C4.14474 12.5768 4.24006 12.5196 4.31751 12.4422L11.408 5.35169L9.64835 3.59197ZM12.3517 4.40801L13.47 3.28972C13.7306 3.02913 13.7306 2.60663 13.47 2.34605L12.654 1.53001C12.3934 1.26942 11.9708 1.26942 11.7103 1.53001L10.592 2.64829L12.3517 4.40801Z" fill="#323544"/>
</svg>
