<svg width="31" height="31" viewBox="0 0 31 31" fill="none" xmlns="http://www.w3.org/2000/svg">
<circle cx="15.5" cy="15.5" r="15.5" fill="#D9D9D9"/>
<path fill-rule="evenodd" clip-rule="evenodd" d="M18 12.5029C18 13.878 16.8838 15 15.5029 15L15.4971 14.9942C14.122 14.9942 13 13.8723 13 12.4971C13 11.122 14.1277 10 15.5029 10C16.878 10 18 11.1277 18 12.5029ZM17.1369 12.4971C17.1369 11.5995 16.4062 10.8631 15.5029 10.8631C14.6053 10.8631 13.8688 11.5995 13.8688 12.4971C13.8688 13.3947 14.6053 14.1312 15.5029 14.1312C16.4005 14.1312 17.1369 13.3947 17.1369 12.4971Z" fill="#323544"/>
<path d="M16 16C17.6182 16 18.8848 16.4693 19.7636 17.3953V17.3891C21.004 18.6944 21.0002 20.4218 21 20.5333V20.5364C20.9939 20.793 20.7939 20.9995 20.5454 20.9995H20.5394C20.2848 20.9932 20.0909 20.7805 20.0909 20.5239C20.0909 20.4926 20.0909 19.066 19.1091 18.0398C18.4061 17.3077 17.3576 16.9323 16 16.9323C14.6424 16.9323 13.5939 17.3077 12.8909 18.0398C11.9091 19.0723 11.9091 20.5114 11.9091 20.5239C11.9091 20.7805 11.7091 20.9995 11.4606 20.9995C11.2424 21.012 11 20.7992 11 20.5427L11 20.5398C10.9998 20.4348 10.9958 18.7009 12.2364 17.3953C13.1152 16.4693 14.3818 16 16 16Z" fill="#323544"/>
</svg>
