<svg width="15" height="15" viewBox="0 0 15 15" fill="none" xmlns="http://www.w3.org/2000/svg">
<path fill-rule="evenodd" clip-rule="evenodd" d="M0 6.93636C0 3.1054 3.10635 0 6.93792 0C10.7695 0 13.8758 3.1054 13.8758 6.93636C13.8758 8.64999 13.2544 10.2184 12.2245 11.4287L14.8352 14.0397C15.0549 14.2594 15.0549 14.6155 14.8352 14.8352C14.6155 15.0549 14.2593 15.0549 14.0397 14.8352L11.4286 12.224C10.2184 13.2523 8.65058 13.8728 6.93792 13.8728C3.10635 13.8728 0 10.7674 0 6.93636ZM6.93792 1.12507C3.72744 1.12507 1.12507 3.72701 1.12507 6.93636C1.12507 10.1458 3.72744 12.7477 6.93792 12.7477C10.1484 12.7477 12.7508 10.1458 12.7508 6.93636C12.7508 3.72701 10.1484 1.12507 6.93792 1.12507Z" fill="#323544"/>
</svg>
